<?xml version="1.0" encoding="UTF-8" standalone="no"?>
<!-- Generator: Adobe Illustrator 16.0.0, SVG Export Plug-In . SVG Version: 6.00 Build 0)  -->

<svg
   xmlns:dc="http://purl.org/dc/elements/1.1/"
   xmlns:cc="http://creativecommons.org/ns#"
   xmlns:rdf="http://www.w3.org/1999/02/22-rdf-syntax-ns#"
   xmlns:svg="http://www.w3.org/2000/svg"
   xmlns="http://www.w3.org/2000/svg"
   xmlns:sodipodi="http://sodipodi.sourceforge.net/DTD/sodipodi-0.dtd"
   xmlns:inkscape="http://www.inkscape.org/namespaces/inkscape"
   version="1.1"
   id="Layer_1"
   x="0px"
   y="0px"
   width="86px"
   height="59px"
   viewBox="0 0 86 59"
   enable-background="new 0 0 86 59"
   xml:space="preserve"
   inkscape:version="0.91 r13725"
   sodipodi:docname="icono-menu-blue.svg"><metadata
     id="metadata3372"><rdf:RDF><cc:Work
         rdf:about=""><dc:format>image/svg+xml</dc:format><dc:type
           rdf:resource="http://purl.org/dc/dcmitype/StillImage" /><dc:title></dc:title></cc:Work></rdf:RDF></metadata><defs
     id="defs3370" /><sodipodi:namedview
     pagecolor="#ffffff"
     bordercolor="#666666"
     borderopacity="1"
     objecttolerance="10"
     gridtolerance="10"
     guidetolerance="10"
     inkscape:pageopacity="0"
     inkscape:pageshadow="2"
     inkscape:window-width="663"
     inkscape:window-height="782"
     id="namedview3368"
     showgrid="false"
     inkscape:zoom="4"
     inkscape:cx="43"
     inkscape:cy="29.683176"
     inkscape:window-x="320"
     inkscape:window-y="134"
     inkscape:window-maximized="0"
     inkscape:current-layer="Layer_1" /><path
     fill="#FFFFFF"
     d="M14.526,18.742c-1.493,0-2.713-1.203-2.713-2.692c0-1.488,1.22-2.692,2.713-2.692h54.855  c1.495,0,2.713,1.204,2.713,2.692c0,1.489-1.218,2.692-2.713,2.692H14.526L14.526,18.742z M14.526,32L14.526,32  c-1.493,0-2.713-1.197-2.713-2.687c0-1.488,1.22-2.692,2.713-2.692h54.855c1.495,0,2.713,1.204,2.713,2.692  c0,1.489-1.218,2.687-2.713,2.687H14.526L14.526,32z M14.526,45.263L14.526,45.263c-1.493,0-2.713-1.203-2.713-2.692  c0-1.481,1.22-2.694,2.713-2.694h54.855c1.495,0,2.713,1.213,2.713,2.694c0,1.489-1.218,2.692-2.713,2.692H14.526L14.526,45.263z"
     id="path3366"
     style="fill:#1b6394;fill-opacity:1" /></svg>