<?xml version="1.0" encoding="UTF-8" standalone="no"?>
<!-- Generator: Adobe Illustrator 16.0.0, SVG Export Plug-In . SVG Version: 6.00 Build 0)  -->

<svg
   xmlns:dc="http://purl.org/dc/elements/1.1/"
   xmlns:cc="http://creativecommons.org/ns#"
   xmlns:rdf="http://www.w3.org/1999/02/22-rdf-syntax-ns#"
   xmlns:svg="http://www.w3.org/2000/svg"
   xmlns="http://www.w3.org/2000/svg"
   xmlns:sodipodi="http://sodipodi.sourceforge.net/DTD/sodipodi-0.dtd"
   xmlns:inkscape="http://www.inkscape.org/namespaces/inkscape"
   version="1.1"
   id="Layer_1"
   x="0px"
   y="0px"
   width="334"
   height="88"
   viewBox="0 0 334 87.999994"
   enable-background="new 0 0 841.89 595.275"
   xml:space="preserve"
   inkscape:version="0.91 r13725"
   sodipodi:docname="interfase.svg"><metadata
     id="metadata3408"><rdf:RDF><cc:Work
         rdf:about=""><dc:format>image/svg+xml</dc:format><dc:type
           rdf:resource="http://purl.org/dc/dcmitype/StillImage" /><dc:title></dc:title></cc:Work></rdf:RDF></metadata><defs
     id="defs3406" /><sodipodi:namedview
     pagecolor="#ffffff"
     bordercolor="#666666"
     borderopacity="1"
     objecttolerance="10"
     gridtolerance="10"
     guidetolerance="10"
     inkscape:pageopacity="0"
     inkscape:pageshadow="2"
     inkscape:window-width="1280"
     inkscape:window-height="961"
     id="namedview3404"
     showgrid="false"
     inkscape:zoom="1.1213452"
     inkscape:cx="482.0162"
     inkscape:cy="191.66798"
     inkscape:window-x="-8"
     inkscape:window-y="-8"
     inkscape:window-maximized="1"
     inkscape:current-layer="Layer_1" /><g
     id="g3380"
     transform="translate(-250.23518,-225.90576)"
     style="fill:#ffffff"><path
       d="m 328.825,265.895 c 1.177,0 2.185,-0.336 2.941,-1.093 0.757,-0.756 1.177,-1.765 1.177,-2.857 0,-1.093 -0.42,-2.101 -1.177,-2.858 -0.84,-0.756 -1.764,-1.176 -2.941,-1.176 -1.093,0 -2.101,0.42 -2.858,1.176 -0.756,0.757 -1.176,1.765 -1.176,2.858 0,1.092 0.42,2.101 1.176,2.857 0.757,0.757 1.765,1.093 2.858,1.093"
       id="path3382"
       inkscape:connector-curvature="0"
       style="fill:#ffffff" /><path
       d="m 337.23,308.927 c -2.102,-0.338 -3.026,-0.926 -3.446,-1.262 -0.504,-0.504 -0.757,-1.008 -0.925,-1.596 l -0.336,-3.531 0,-2.857 0,-21.263 c 0,-0.253 -0.084,-0.42 -0.252,-0.589 -0.168,-0.084 -0.336,-0.168 -0.588,-0.168 l -10.674,1.345 c -0.336,0.084 -0.589,0.337 -0.589,0.756 l 0,0.757 c 0,0.336 0.253,0.672 0.673,0.672 1.009,0.085 1.765,0.252 2.269,0.505 0.504,0.252 0.925,0.672 1.261,1.26 0.336,0.589 0.588,1.261 0.672,2.185 l 0.252,5.211 0,9.162 -0.168,4.875 -0.504,2.354 c -0.336,0.672 -0.756,1.176 -1.261,1.428 -0.42,0.252 -1.26,0.588 -2.941,0.758 -0.421,0.084 -0.672,0.336 -0.672,0.756 l 0,0.756 c 0,0.42 0.335,0.758 0.756,0.758 l 16.305,0 c 0.42,0 0.756,-0.338 0.756,-0.758 l 0,-0.756 c 0,-0.338 -0.252,-0.674 -0.588,-0.758"
       id="path3384"
       inkscape:connector-curvature="0"
       style="fill:#ffffff" /><path
       d="m 378.244,308.927 c -2.101,-0.338 -3.025,-0.926 -3.445,-1.262 -0.504,-0.504 -0.756,-1.008 -0.926,-1.596 l -0.252,-3.531 0,-15.716 c 0,-2.942 -1.092,-5.211 -3.192,-6.809 -2.017,-1.512 -4.791,-2.353 -8.069,-2.353 -3.95,0 -7.396,1.345 -10.337,3.951 -0.169,-1.093 -0.421,-3.362 -0.421,-3.362 0,-0.252 -0.168,-0.336 -0.252,-0.505 -0.167,-0.084 -0.336,-0.084 -0.504,-0.084 l -10.17,1.345 c -0.42,0.084 -0.672,0.337 -0.672,0.756 l 0,0.757 c 0,0.336 0.336,0.672 0.672,0.672 1.009,0.085 1.765,0.252 2.27,0.505 0.504,0.252 0.924,0.672 1.26,1.26 0.42,0.504 0.589,1.261 0.757,2.185 l 0.168,5.211 0,9.162 -0.168,4.875 -0.505,2.27 c -0.336,0.756 -0.756,1.26 -1.26,1.512 -0.42,0.252 -1.261,0.588 -2.942,0.758 -0.336,0.084 -0.588,0.336 -0.588,0.756 l 0,0.756 c 0,0.42 0.252,0.758 0.672,0.758 l 16.305,0 c 0.42,0 0.757,-0.338 0.757,-0.758 l 0,-0.756 c 0,-0.336 -0.253,-0.672 -0.589,-0.756 -2.101,-0.338 -3.025,-0.926 -3.445,-1.262 -0.421,-0.504 -0.757,-1.008 -0.925,-1.682 l -0.252,-3.445 c 0,-0.084 -0.084,-2.773 -0.084,-2.773 l 0,-7.312 c 0,-2.773 0.168,-4.874 0.336,-6.051 0.252,-1.093 0.673,-2.185 1.345,-3.026 0.672,-0.84 1.513,-1.512 2.605,-2.017 1.093,-0.504 2.269,-0.756 3.53,-0.756 1.176,0 2.269,0.168 3.194,0.673 1.008,0.42 1.681,1.008 2.185,1.764 0.42,0.673 0.756,1.597 0.924,2.69 l 0.252,5.883 0,7.816 -0.168,4.875 -0.504,2.354 c -0.336,0.756 -0.756,1.26 -1.26,1.512 -0.337,0.252 -1.177,0.588 -2.942,0.758 -0.337,0.084 -0.588,0.336 -0.588,0.756 l 0,0.756 c 0,0.42 0.336,0.758 0.672,0.758 l 16.473,0 c 0.336,0 0.672,-0.338 0.672,-0.758 l 0,-0.756 c -0.001,-0.338 -0.253,-0.674 -0.589,-0.758"
       id="path3386"
       inkscape:connector-curvature="0"
       style="fill:#ffffff" /><path
       d="m 401.945,305.648 c -0.168,-0.168 -0.336,-0.252 -0.504,-0.168 -0.252,0 -0.42,0.084 -0.504,0.252 -0.842,1.178 -1.598,1.934 -2.27,2.354 -0.589,0.42 -1.346,0.588 -2.354,0.588 -0.756,0 -1.514,-0.168 -2.102,-0.42 -0.672,-0.336 -1.177,-0.756 -1.597,-1.26 -0.756,-1.01 -1.176,-2.689 -1.176,-5.127 l 0,-20.927 8.655,0 c 0.42,0 0.674,-0.336 0.674,-0.673 l 0,-1.345 c 0,-0.42 -0.254,-0.756 -0.674,-0.756 l -8.655,0 0,-8.909 c 0,-0.42 -0.337,-0.672 -0.673,-0.672 l -1.43,0 c -0.336,0 -0.588,0.168 -0.672,0.504 l -0.336,1.177 -1.429,3.362 -1.849,2.605 c -1.262,1.345 -2.69,2.269 -4.119,2.773 -0.336,0.084 -0.504,0.337 -0.504,0.673 l 0,0.588 c 0,0.337 0.252,0.673 0.672,0.673 l 3.279,0 0,21.767 c 0,2.27 0.084,3.783 0.336,4.707 0.252,0.922 0.84,1.766 1.597,2.438 1.512,1.26 3.782,1.934 6.807,1.934 2.354,0 4.287,-0.422 5.8,-1.178 1.596,-0.84 2.857,-2.018 3.782,-3.613 0.167,-0.336 0.084,-0.672 -0.169,-0.924 l -0.585,-0.423 z"
       id="path3388"
       inkscape:connector-curvature="0"
       style="fill:#ffffff" /><path
       d="m 423.965,283.46 c 0.59,1.093 1.01,2.689 1.178,4.622 l -14.122,0 c 0.338,-2.184 1.094,-4.201 2.438,-5.715 1.43,-1.68 3.025,-2.521 4.959,-2.521 1.094,0 2.186,0.336 3.194,1.009 0.925,0.588 1.765,1.512 2.353,2.605 m 8.488,18.155 -0.756,-0.252 c -0.336,-0.084 -0.756,0.084 -0.924,0.42 -0.588,1.85 -1.26,3.109 -2.102,3.865 l 0,0.084 c -0.674,0.674 -1.598,1.262 -2.689,1.682 -1.091,0.42 -2.27,0.588 -3.529,0.588 -1.682,0 -3.278,-0.336 -4.875,-1.092 -1.514,-0.756 -2.773,-1.766 -3.782,-3.109 -1.093,-1.262 -1.849,-2.857 -2.437,-4.875 -0.674,-1.934 -0.926,-3.95 -0.926,-6.051 0,0 0.084,-1.177 0.084,-1.934 l 21.012,0 c 0.42,0 0.756,-0.336 0.756,-0.672 0,-3.278 -1.008,-6.051 -2.857,-8.237 -1.262,-1.428 -2.773,-2.521 -4.537,-3.278 -1.766,-0.672 -3.699,-1.092 -5.799,-1.092 -3.867,0 -7.312,1.261 -10.339,3.614 -4.118,3.278 -6.219,7.901 -6.219,13.615 0,4.203 1.092,7.816 3.276,10.757 1.599,2.018 3.531,3.615 5.801,4.623 2.269,1.008 4.957,1.514 8.068,1.514 3.698,0 6.639,-0.758 8.825,-2.354 2.27,-1.598 3.781,-3.951 4.453,-6.977 0.084,-0.335 -0.168,-0.755 -0.504,-0.839"
       id="path3390"
       inkscape:connector-curvature="0"
       style="fill:#ffffff" /><path
       d="m 462.039,278.922 c -0.926,-0.84 -2.355,-1.261 -4.119,-1.261 -2.773,0 -5.211,0.757 -7.396,2.353 -0.756,0.505 -1.428,1.262 -2.102,2.101 -0.084,-1.26 -0.168,-2.353 -0.42,-3.865 -0.084,-0.336 -0.42,-0.589 -0.84,-0.589 l -9.498,1.345 c -0.42,0.084 -0.672,0.336 -0.672,0.756 l 0,0.757 c 0,0.336 0.336,0.672 0.672,0.672 1.01,0.085 1.766,0.252 2.27,0.504 0.504,0.253 0.924,0.673 1.26,1.261 0.422,0.589 0.59,1.261 0.758,2.185 l 0.168,5.211 0,9.161 -0.168,4.875 -0.504,2.354 c -0.338,0.672 -0.758,1.176 -1.262,1.428 -0.42,0.252 -1.26,0.588 -2.941,0.758 -0.336,0.084 -0.588,0.336 -0.588,0.756 l 0,0.756 c 0,0.42 0.252,0.756 0.672,0.756 l 16.305,0 c 0.422,0 0.758,-0.336 0.758,-0.756 l 0,-0.756 c 0,-0.336 -0.252,-0.672 -0.59,-0.756 -2.1,-0.338 -3.025,-0.926 -3.445,-1.262 -0.42,-0.504 -0.756,-1.008 -0.924,-1.682 l -0.252,-3.445 -0.084,-2.857 0,-6.892 c 0,-3.782 0.504,-6.723 1.344,-8.825 0.842,-1.932 1.934,-2.857 3.277,-2.857 1.092,0 1.934,0.42 2.691,1.261 l 1.176,1.261 c 0.756,0.84 1.682,1.26 2.689,1.26 0.924,0 1.682,-0.336 2.27,-0.841 0.588,-0.588 0.924,-1.344 0.924,-2.269 -0.001,-1.093 -0.505,-2.102 -1.429,-2.858"
       id="path3392"
       inkscape:connector-curvature="0"
       style="fill:#ffffff" /><path
       d="m 491.117,264.382 c 0.588,-0.588 0.926,-1.429 0.926,-2.353 0,-0.925 -0.422,-2.27 -2.102,-3.278 -1.262,-0.756 -2.941,-1.092 -5.043,-1.092 -2.1,0 -4.119,0.252 -6.051,0.756 -1.934,0.588 -3.615,1.344 -4.959,2.353 -1.598,1.093 -2.689,2.353 -3.277,3.782 -0.59,1.345 -0.926,3.11 -0.926,5.379 l 0,8.321 -4.621,0 c -0.42,0 -0.674,0.252 -0.674,0.672 l 0,1.345 c 0,0.42 0.254,0.756 0.674,0.756 l 4.621,0 0,18.406 -0.168,4.875 -0.504,2.354 c -0.336,0.756 -0.756,1.26 -1.262,1.512 -0.336,0.252 -1.176,0.588 -2.941,0.758 -0.336,0.084 -0.588,0.336 -0.588,0.756 l 0,0.756 c 0,0.42 0.336,0.756 0.674,0.756 l 16.389,0 c 0.336,0 0.672,-0.336 0.672,-0.756 l 0,-0.756 c 0,-0.336 -0.252,-0.672 -0.59,-0.756 -2.1,-0.338 -3.023,-0.926 -3.359,-1.262 -0.506,-0.504 -0.842,-1.008 -1.01,-1.682 l -0.252,-3.445 0,-2.857 0,-18.658 6.557,0 c 0.42,0 0.756,-0.336 0.756,-0.756 l 0,-1.345 c 0,-0.42 -0.336,-0.672 -0.756,-0.672 l -6.557,0 0,-9.077 0.336,-4.707 c 0.168,-1.008 0.506,-1.849 0.926,-2.437 0.42,-0.504 1.008,-0.925 1.68,-1.261 0.756,-0.336 1.598,-0.504 2.354,-0.504 0.588,0 1.094,0.084 1.43,0.336 l 1.512,2.101 1.68,1.933 c 0.59,0.504 1.346,0.673 2.188,0.673 0.837,-10e-4 1.593,-0.254 2.265,-0.926"
       id="path3394"
       inkscape:connector-curvature="0"
       style="fill:#ffffff" /><path
       d="m 506.162,293.546 0,4.875 c 0,3.026 -0.42,5.377 -1.094,6.975 -0.504,1.094 -1.176,2.018 -2.184,2.689 -0.924,0.674 -1.934,1.01 -3.027,1.01 -1.092,0 -2.1,-0.422 -2.855,-1.346 -0.758,-0.924 -1.178,-2.102 -1.178,-3.613 0,-1.766 0.59,-3.193 1.598,-4.539 l 1.764,-1.681 3.615,-2.101 c 1.176,-0.671 2.267,-1.429 3.361,-2.269 m 13.279,12.692 c -0.252,-0.168 -0.672,-0.084 -0.924,0.168 l -1.346,1.428 c 0.084,-0.084 -0.168,0.084 0,0 l -1.43,0.336 c -1.26,0 -2.016,-0.672 -2.352,-2.1 -0.168,-0.758 -0.252,-2.271 -0.252,-4.539 l 0,-13.7 -0.338,-3.95 c -0.42,-1.682 -1.512,-3.026 -3.277,-4.035 -1.176,-0.588 -2.689,-1.176 -4.371,-1.597 -1.68,-0.336 -3.359,-0.588 -4.959,-0.588 l -4.285,0.42 -3.781,1.177 c -2.018,1.008 -3.025,2.353 -3.025,3.866 0,1.092 0.336,1.933 1.092,2.605 0.672,0.757 1.514,1.093 2.605,1.093 1.596,0 2.689,-0.757 3.277,-2.269 0.084,0 0.926,-2.102 0.926,-2.102 0.336,-0.84 0.84,-1.428 1.512,-1.932 0.672,-0.421 1.428,-0.673 2.354,-0.673 0.672,0 1.428,0.168 2.102,0.504 0.672,0.337 1.176,0.757 1.596,1.345 1.008,1.176 1.514,3.194 1.514,5.883 0,1.261 -0.168,2.269 -0.42,2.942 -0.252,0.588 -0.674,1.176 -1.346,1.681 l -2.436,1.177 -4.623,1.344 -4.371,1.514 c -1.008,0.42 -1.934,1.092 -2.773,1.934 -1.43,1.512 -2.102,3.446 -2.102,5.629 0,2.439 0.842,4.455 2.605,5.885 1.766,1.428 4.035,2.102 6.977,2.102 2.184,0 4.203,-0.506 5.883,-1.43 0,0 2.1,-1.682 3.277,-2.521 0.674,1.094 1.346,2.018 2.102,2.521 1.26,0.924 2.857,1.43 4.791,1.43 3.445,0 5.799,-1.43 6.723,-4.371 0.168,-0.336 0,-0.672 -0.252,-0.84 l -0.673,-0.337 z"
       id="path3396"
       inkscape:connector-curvature="0"
       style="fill:#ffffff" /><path
       d="m 537.09,291.444 -3.865,-1.765 c -1.766,-0.756 -3.025,-1.597 -3.865,-2.521 -0.756,-0.84 -1.094,-1.765 -1.094,-2.774 0,-1.26 0.422,-2.353 1.262,-3.193 0.84,-0.925 1.848,-1.345 3.025,-1.345 0.84,0 1.766,0.252 2.605,0.757 0.924,0.504 1.766,1.176 2.438,2.017 0.084,0 1.262,1.933 1.262,1.933 l 0.84,2.689 c 0.084,0.336 0.336,0.589 0.672,0.589 l 0.756,0 c 0.252,0 0.42,-0.085 0.504,-0.253 0.168,-0.084 0.252,-0.336 0.252,-0.504 l -0.42,-8.152 c 0,-0.421 -0.336,-0.673 -0.672,-0.673 l -0.756,0 c -0.252,0 -0.42,0.084 -0.588,0.252 -0.168,0.252 -0.422,0.673 -0.758,0.673 l -0.756,-0.168 -1.262,-0.589 c -1.176,-0.504 -2.436,-0.756 -3.781,-0.756 -3.025,0 -5.463,1.009 -7.312,2.942 -1.596,1.764 -2.438,3.865 -2.438,6.303 0,2.185 0.842,4.202 2.438,5.968 1.094,1.175 3.195,2.521 6.389,4.285 l 3.697,2.102 1.68,1.598 c 0.842,1.008 1.178,2.184 1.178,3.613 0,1.682 -0.504,2.941 -1.596,3.865 -0.926,0.842 -2.102,1.262 -3.531,1.262 -2.27,0 -4.285,-1.262 -6.051,-3.867 -1.008,-1.428 -1.85,-3.445 -2.438,-5.883 -0.084,-0.336 -0.42,-0.588 -0.756,-0.588 l -0.59,0 c -0.42,0 -0.756,0.336 -0.756,0.756 l 0,10.422 c 0,0.42 0.336,0.756 0.756,0.756 l 0.59,0 c 0.252,0 0.504,-0.168 0.672,-0.42 0.252,-0.504 0.672,-0.756 1.344,-0.756 l 0.674,0.084 1.85,0.672 c 1.764,0.674 3.529,1.01 5.211,1.01 3.191,0 5.883,-1.094 7.898,-3.195 1.85,-1.764 2.773,-4.117 2.773,-6.891 0,-2.27 -0.672,-4.372 -1.934,-6.051 -1.176,-1.683 -3.024,-3.027 -5.547,-4.204"
       id="path3398"
       inkscape:connector-curvature="0"
       style="fill:#ffffff" /><path
       d="m 571.045,283.46 c 0.59,1.093 1.01,2.689 1.178,4.622 l -14.205,0 c 0.42,-2.184 1.178,-4.201 2.521,-5.715 1.43,-1.68 3.025,-2.521 4.959,-2.521 1.094,0 2.186,0.336 3.111,1.009 1.008,0.588 1.848,1.512 2.436,2.605 m 8.49,18.155 -0.758,-0.252 c -0.42,-0.084 -0.756,0.084 -0.926,0.42 -0.588,1.85 -1.26,3.109 -2.1,3.865 -0.756,0.758 -1.596,1.346 -2.689,1.766 -1.092,0.42 -2.354,0.588 -3.529,0.588 -1.682,0 -3.363,-0.336 -4.875,-1.092 -1.514,-0.756 -2.773,-1.766 -3.867,-3.109 -1.008,-1.262 -1.764,-2.857 -2.438,-4.875 -0.588,-1.934 -0.84,-3.95 -0.84,-6.051 0,0 0.084,-1.177 0.084,-1.934 l 21.012,0 c 0.422,0 0.758,-0.336 0.758,-0.672 0,-3.278 -1.01,-6.051 -2.943,-8.237 -1.176,-1.428 -2.688,-2.521 -4.537,-3.278 -1.682,-0.672 -3.615,-1.092 -5.717,-1.092 -3.865,0 -7.311,1.261 -10.336,3.614 -4.119,3.278 -6.221,7.901 -6.221,13.615 0,4.203 1.094,7.816 3.277,10.757 1.598,2.018 3.531,3.615 5.799,4.623 2.27,1.008 4.961,1.514 8.07,1.514 3.697,0 6.639,-0.758 8.824,-2.354 2.268,-1.598 3.783,-3.951 4.455,-6.977 0.085,-0.335 -0.167,-0.755 -0.503,-0.839"
       id="path3400"
       inkscape:connector-curvature="0"
       style="fill:#ffffff" /><path
       d="m 308.99,259.171 -16.809,0 c -3.025,0 -8.489,-1.008 -6.724,-5.294 1.429,-2.606 2.269,-5.548 2.269,-8.741 0,-9.75 -7.984,-17.734 -17.733,-17.734 -9.834,0 -17.818,7.984 -17.818,17.734 0,9.497 7.48,17.229 16.809,17.733 l -0.084,0.084 0.757,0 0.336,0 c 0.84,0 1.681,-0.084 2.521,-0.252 4.959,-0.42 8.993,-1.176 6.64,3.782 l -20.339,42.78 c -0.589,1.344 0,2.521 1.344,2.521 l 23.87,0 c 1.428,0 3.025,-1.178 3.697,-2.521 l 22.609,-47.654 c 0.672,-1.345 0.084,-2.438 -1.345,-2.438"
       id="path3402"
       inkscape:connector-curvature="0"
       style="fill:#ffffff" /></g></svg>